<svg xmlns="http://www.w3.org/2000/svg" width="128" height="128" viewBox="0 0 128 128">
  <title>Password</title>
  <path d="M114,15.25H14A9.761,9.761,0,0,0,4.25,25v77A10.762,10.762,0,0,0,15,112.75h98A10.762,10.762,0,0,0,123.75,102V25A9.761,9.761,0,0,0,114,15.25ZM120.25,25V36.683H52.888L61.37,18.75H114A6.257,6.257,0,0,1,120.25,25ZM14,18.75H57.5L49.016,36.683H7.75V25A6.257,6.257,0,0,1,14,18.75Zm99,90.5H15A7.258,7.258,0,0,1,7.75,102V40.183h112.5V102A7.258,7.258,0,0,1,113,109.25Z"/>
  <path d="M21.57,33.466a5.75,5.75,0,1,0-5.75-5.75A5.756,5.756,0,0,0,21.57,33.466Zm0-8a2.25,2.25,0,1,1-2.25,2.25A2.253,2.253,0,0,1,21.57,25.466Z"/>
  <path d="M37.626,33.466a5.75,5.75,0,1,0-5.75-5.75A5.756,5.756,0,0,0,37.626,33.466Zm0-8a2.25,2.25,0,1,1-2.25,2.25A2.253,2.253,0,0,1,37.626,25.466Z"/>
  <path d="M67.522,29.466h44.745a1.75,1.75,0,0,0,0-3.5H67.522a1.75,1.75,0,0,0,0,3.5Z"/>
  <path d="M98,79.5H30a1.751,1.751,0,0,0-1.75,1.75v20A1.75,1.75,0,0,0,30,103H98a1.75,1.75,0,0,0,1.75-1.75v-20A1.751,1.751,0,0,0,98,79.5Zm-1.75,20H31.75V83h64.5Z"/>
  <path d="M39.1,94.976a1.752,1.752,0,0,0,2.433.457L42.8,94.57v.683a1.75,1.75,0,0,0,3.5,0V94.57l1.263.863a1.75,1.75,0,0,0,1.975-2.89l-1.886-1.289,1.886-1.29a1.75,1.75,0,0,0-1.975-2.89l-1.263.863v-.684a1.75,1.75,0,0,0-3.5,0v.684l-1.262-.863a1.75,1.75,0,1,0-1.975,2.89l1.886,1.29-1.886,1.289A1.751,1.751,0,0,0,39.1,94.976Z"/>
  <path d="M58.555,94.976a1.752,1.752,0,0,0,2.433.457l1.262-.863v.683a1.75,1.75,0,0,0,3.5,0V94.57l1.262.863a1.75,1.75,0,1,0,1.976-2.89L67.1,91.254l1.887-1.29a1.75,1.75,0,1,0-1.976-2.89l-1.262.863v-.684a1.75,1.75,0,1,0-3.5,0v.684l-1.262-.863a1.75,1.75,0,0,0-1.976,2.89l1.887,1.29-1.887,1.289A1.751,1.751,0,0,0,58.555,94.976Z"/>
  <path d="M78.006,94.976a1.751,1.751,0,0,0,2.432.457L81.7,94.57v.683a1.75,1.75,0,1,0,3.5,0V94.57l1.262.863a1.75,1.75,0,1,0,1.975-2.89l-1.886-1.289,1.886-1.29a1.75,1.75,0,1,0-1.975-2.89l-1.262.863v-.684a1.75,1.75,0,0,0-3.5,0v.684l-1.263-.863a1.75,1.75,0,0,0-1.975,2.89l1.886,1.29-1.886,1.289A1.75,1.75,0,0,0,78.006,94.976Z"/>
  <path d="M59.731,75.1h8.538A8.236,8.236,0,0,0,76.5,66.875V59.694a1.751,1.751,0,0,0-1.75-1.75H72.61V55.35a8.61,8.61,0,0,0-17.22,0v2.594H53.254a1.751,1.751,0,0,0-1.75,1.75v7.181A8.236,8.236,0,0,0,59.731,75.1ZM58.89,55.35a5.11,5.11,0,0,1,10.22,0v2.594H58.89ZM55,61.444H73v5.431A4.732,4.732,0,0,1,68.269,71.6H59.731A4.732,4.732,0,0,1,55,66.875Z"/>
</svg>
